<?xml version="1.0" encoding="UTF-8" standalone="no" ?>
<!DOCTYPE svg PUBLIC "-//W3C//DTD SVG 1.1//EN" "http://www.w3.org/Graphics/SVG/1.1/DTD/svg11.dtd">
<svg xmlns="http://www.w3.org/2000/svg" xmlns:xlink="http://www.w3.org/1999/xlink" version="1.1" width="120" height="94" viewBox="0 0 120 94" xml:space="preserve">
<desc>Created with Fabric.js 3.6.3</desc>
<defs>
</defs>
<g transform="matrix(3.32 0 0 3.32 59.47 30.79)" id="Capa_1"  >
<path style="stroke: none; stroke-width: 1; stroke-dasharray: none; stroke-linecap: butt; stroke-dashoffset: 0; stroke-linejoin: miter; stroke-miterlimit: 4; fill: rgb(0,0,0); fill-rule: nonzero; opacity: 1;"  transform=" translate(-17.76, -17.76)" d="M 10.964 20.617 h 2.483 v 2.483 h -2.483 V 20.617 z M 14.544 23.103 h 2.483 v -2.484 h -2.483 V 23.103 z M 10.964 26.828 h 2.483 v -2.483 h -2.483 V 26.828 z M 14.544 26.828 h 2.483 v -2.483 h -2.483 V 26.828 z M 35.526 16.832 l -3.152 -2.58 v -3.479 h -3 v 1.021 l -3.78 -3.096 l -7.857 6.435 L 14 12.071 L 0 23.534 l 2.533 3.098 l 11.465 -9.389 l 11.465 9.389 l 2.531 -3.098 l -7.893 -6.463 l 5.49 -4.494 l 8.032 6.578 L 35.526 16.832 z M 25.285 15.992 h -1.387 v 1.386 h 1.387 V 15.992 z M 27.283 15.992 h -1.385 v 1.386 h 1.385 V 15.992 z M 23.901 19.457 h 1.385 V 18.07 h -1.385 V 19.457 z M 25.899 19.457 h 1.385 V 18.07 h -1.385 V 19.457 z" stroke-linecap="round" />
</g>
<g transform="matrix(1.01 0 0 1.01 49.75 78.92)" style=""  >
		<text xml:space="preserve" font-family="'Open Sans', sans-serif" font-size="20" font-style="normal" font-weight="normal" style="stroke: none; stroke-width: 1; stroke-dasharray: none; stroke-linecap: butt; stroke-dashoffset: 0; stroke-linejoin: miter; stroke-miterlimit: 4; fill: rgb(0,0,0); fill-rule: nonzero; opacity: 1; white-space: pre;" ><tspan x="-44.57" y="-1.72" >Inmobiliaria</tspan><tspan x="-17.07" y="14.29" >Albornoz</tspan></text>
</g>
</svg>